<svg aria-hidden="true" style="width:0;height:0;position:absolute;overflow:hidden" xmlns="http://www.w3.org/2000/svg"><defs><symbol id="moon" viewBox="0 0 32 32"><path fill="none" stroke="#5f6775" style="stroke:var(--color1,#5f6775)" stroke-linejoin="round" stroke-linecap="round" stroke-width="2.286" d="M28 17.053a11.994 11.994 0 0 1-7.873 10.182A12.003 12.003 0 0 1 4.338 18.56 12.002 12.002 0 0 1 14.946 3.999 9.335 9.335 0 0 0 28 17.053v0z"/></symbol><symbol id="fill-heart" viewBox="0 0 32 32"><path fill="#4b48da" style="fill:var(--color2,#4b48da)" d="M9.333 4c-3.681 0-6.667 2.955-6.667 6.6 0 2.943 1.167 9.927 12.651 16.987a1.316 1.316 0 0 0 1.366 0c11.484-7.06 12.651-14.044 12.651-16.987 0-3.645-2.985-6.6-6.667-6.6S16 8 16 8s-2.985-4-6.667-4z"/></symbol><symbol id="search" viewBox="0 0 32 32"><path d="M13.333 23.6c2.367 0 4.665-.753 6.529-2.138l5.861 5.568 1.885-1.791-5.861-5.568a9.755 9.755 0 0 0 2.252-6.204c0-5.587-4.785-10.133-10.667-10.133S2.665 7.88 2.665 13.467c0 5.587 4.785 10.133 10.667 10.133zm0-17.733c4.412 0 8 3.409 8 7.6s-3.588 7.6-8 7.6-8-3.409-8-7.6 3.588-7.6 8-7.6z"/></symbol><symbol id="icon-round" viewBox="0 0 32 32"><path fill="#4b48db" style="fill:var(--color3,#4b48db)" d="M31.059 16c0 8.317-6.742 15.059-15.059 15.059S.941 24.317.941 16 7.683.941 16 .941 31.059 7.683 31.059 16z"/></symbol><symbol id="pointer-down" viewBox="0 0 32 32"><path fill="#4440f6" style="fill:var(--color4,#4440f6)" d="M3.76 9.143 0 12.622l16 14.806 16-14.806-3.76-3.479L16 20.445 3.76 9.143z"/></symbol><symbol id="pointer-up" viewBox="0 0 32 32"><path fill="#4440f6" style="fill:var(--color4,#4440f6)" d="M3.76 25.143 0 21.664 16 6.858l16 14.806-3.76 3.479L16 13.841 3.76 25.143z"/></symbol><symbol id="calendar" viewBox="0 0 32 32"><path fill="#4440f7" style="fill:var(--color5,#4440f7)" d="M22.667 4H28a1.335 1.335 0 0 1 1.334 1.334v21.333A1.335 1.335 0 0 1 28 28.001H4a1.33 1.33 0 0 1-1.333-1.334V5.334A1.333 1.333 0 0 1 4 4h5.333V1.333H12V4h8V1.333h2.667V4zm4 10.667H5.334v10.667h21.333V14.667zm-6.667-8h-8v2.667H9.333V6.667h-4V12h21.333V6.667h-4v2.667h-2.667V6.667zM8 17.333h2.667V20H8v-2.667zm6.667 0h2.667V20h-2.667v-2.667zm6.666 0H24V20h-2.667v-2.667z"/></symbol><symbol id="like" viewBox="0 0 32 32"><path fill="#4440f6" style="fill:var(--color4,#4440f6)" d="M32 16c0 8.837-7.163 16-16 16S0 24.837 0 16 7.163 0 16 0s16 7.163 16 16z"/><path fill="none" stroke="#f4f4f4" style="stroke:var(--color6,#f4f4f4)" stroke-linejoin="round" stroke-linecap="round" d="M22.63 10.457a4.111 4.111 0 0 0-4.496-.895 4.1 4.1 0 0 0-1.338.895l-.795.795-.795-.795a4.125 4.125 0 0 0-5.836 0 4.125 4.125 0 0 0 0 5.835l6.63 6.63 6.63-6.63a4.111 4.111 0 0 0 .895-4.496 4.116 4.116 0 0 0-.895-1.338v0z"/></symbol><symbol id="read" viewBox="0 0 32 32"><path fill="#4440f6" style="fill:var(--color4,#4440f6)" d="M32 16c0 8.837-7.163 16-16 16S0 24.837 0 16 7.163 0 16 0s16 7.163 16 16z"/><path fill="none" stroke="#f4f4f4" style="stroke:var(--color6,#f4f4f4)" stroke-linejoin="round" stroke-linecap="round" d="M8.5 9.25H13a3.004 3.004 0 0 1 3 3v10.5a2.25 2.25 0 0 0-2.25-2.25H8.5V9.25zM23.5 9.25H19a3.004 3.004 0 0 0-3 3v10.5a2.25 2.25 0 0 1 2.25-2.25h5.25V9.25z"/></symbol><symbol id="home" viewBox="0 0 32 32"><path fill="#4440f6" style="fill:var(--color4,#4440f6)" d="M32 16c0 8.837-7.163 16-16 16S0 24.837 0 16 7.163 0 16 0s16 7.163 16 16z"/><path fill="none" stroke="#f4f4f4" style="stroke:var(--color6,#f4f4f4)" stroke-linejoin="round" stroke-linecap="round" d="M9.25 13.75 16 8.5l6.75 5.25V22a1.503 1.503 0 0 1-1.5 1.5h-10.5a1.503 1.503 0 0 1-1.5-1.5v-8.25z"/><path fill="none" stroke="#f4f4f4" style="stroke:var(--color6,#f4f4f4)" stroke-linejoin="round" stroke-linecap="round" d="M13.75 23.5V16h4.5v7.5"/></symbol><symbol id="sun" viewBox="0 0 32 32"><path fill="none" stroke="#4b48db" style="stroke:var(--color3,#4b48db)" stroke-linejoin="round" stroke-linecap="round" stroke-width="2.286" d="M16 1.778v2.586m0 23.272v2.586M5.941 5.941l1.836 1.836m16.446 16.446 1.836 1.836M1.778 16h2.586m23.272 0h2.586M5.941 26.059l1.836-1.836M24.223 7.777l1.836-1.836M22.465 16a6.465 6.465 0 1 1-12.93 0 6.465 6.465 0 0 1 12.93 0z"/></symbol><symbol id="close" viewBox="0 0 32 32"><path fill="none" stroke="#111321" style="stroke:var(--color1,#111321)" stroke-linejoin="round" stroke-linecap="round" stroke-width="2.667" d="M24 8 8 24M8 8l16 16"/></symbol><symbol id="menu" viewBox="0 0 32 32"><path fill="none" stroke="#111321" style="stroke:var(--color1,#111321)" stroke-linejoin="round" stroke-linecap="round" stroke-width="2.667" d="M4 16h24M4 8h24M4 24h24"/></symbol><symbol id="location" viewBox="0 0 32 32"><path fill="#fff" style="fill:var(--color1,#fff)" d="M16 2A11.018 11.018 0 0 0 5 13a10.892 10.892 0 0 0 2.216 6.6s.3.395.349.452L16 30l8.439-9.953c.044-.053.345-.447.345-.447l.001-.003A10.89 10.89 0 0 0 27 13 11.018 11.018 0 0 0 16 2zm0 15a4.004 4.004 0 0 1-3.695-2.469A4 4 0 1 1 20 13a4.004 4.004 0 0 1-4 4z"/></symbol><symbol id="icon-git" viewBox="0 0 32 32"><path fill="#008dd2" style="fill:var(--color1,#008dd2)" d="M15.999 5C9.939 5 5.025 9.914 5.025 15.976c0 4.849 3.144 8.963 7.506 10.414.549.101.722-.225.722-.516 0-.261.005-.989 0-1.906-3.053.664-3.685-1.445-3.685-1.445-.499-1.268-1.218-1.606-1.218-1.606-.996-.681.075-.668.075-.668 1.101.078 1.682 1.132 1.682 1.132.979 1.676 2.568 1.192 3.193.912.1-.709.384-1.193.698-1.467-2.437-.277-4.999-1.219-4.999-5.424 0-1.199.428-2.178 1.129-2.945-.113-.278-.491-1.394.108-2.905 0 0 .921-.295 3.018 1.126a10.522 10.522 0 0 1 2.748-.369c.933.004 1.871.126 2.748.369 2.096-1.42 3.017-1.126 3.017-1.126.598 1.512.221 2.628.108 2.905.702.767 1.128 1.746 1.128 2.945 0 4.217-2.566 5.144-5.012 5.415.394.34.752.998.752 2.022v3.038c0 .293.177.618.734.512 4.358-1.454 7.499-5.565 7.499-10.413C26.976 9.914 22.062 5 16 5zM16 4c6.627 0 12 5.373 12 12s-5.373 12-12 12S4 22.627 4 16 9.373 4 16 4z"/></symbol><symbol id="icon-envelope" viewBox="0 0 43 32"><path d="M38.667 0H4C1.794 0 0 1.794 0 4v24c0 2.206 1.794 4 4 4h34.667c2.206 0 4-1.794 4-4V4c0-2.206-1.794-4-4-4zm0 2.667c.181 0 .353.038.511.103L21.334 18.236 3.49 2.77a1.32 1.32 0 0 1 .511-.103h34.667zm0 26.666H4A1.334 1.334 0 0 1 2.667 28V5.587L20.46 21.008a1.335 1.335 0 0 0 1.748 0L40.001 5.587V28c0 .736-.598 1.333-1.333 1.333z"/></symbol><symbol id="empty-heart" viewBox="0 0 32 32"><path fill="none" stroke="#4440f7" style="stroke:var(--color1,#4440f7)" stroke-linejoin="round" stroke-linecap="round" stroke-width="2" d="M9.333 4c-3.681 0-6.667 2.955-6.667 6.6 0 2.943 1.167 9.927 12.651 16.987a1.316 1.316 0 0 0 1.366 0c11.484-7.06 12.651-14.044 12.651-16.987 0-3.645-2.985-6.6-6.667-6.6S16 8 16 8s-2.985-4-6.667-4z"/></symbol><symbol id="icon-close" viewBox="0 0 32 32"><path d="m26.667 7.303-1.97-1.97-7.808 7.808-7.808-7.808-1.97 1.97 7.808 7.808-7.808 7.808 1.97 1.97 7.808-7.808 7.808 7.808 1.97-1.97-7.808-7.808 7.808-7.808z"/></symbol><symbol id="left" viewBox="0 0 16 32"><path stroke-width="1.778" d="m1.29 16.942-.017-.017A1.225 1.225 0 0 1 .888 16c0-.361.111-.654.397-.954l.004-.005L13.488 2.069a.828.828 0 0 1 .646-.292c.48 0 .976.422.976 1.138 0 .3-.12.604-.334.851L3.227 15.999l11.55 12.233c.216.249.333.537.333.85 0 .717-.496 1.139-.976 1.139a.828.828 0 0 1-.646-.292l-.006-.007L1.29 16.94z"/></symbol><symbol id="right" viewBox="0 0 16 32"><path d="M16 16a2.309 2.309 0 0 0-.643-1.567L3.165 1.468c-.36-.375-.784-.579-1.301-.579-1.05 0-1.865.886-1.865 2.027 0 .545.204 1.056.564 1.448L11.533 16 .563 27.636a2.1 2.1 0 0 0-.564 1.448c0 1.142.815 2.027 1.865 2.027.501 0 .94-.204 1.301-.579L15.357 17.55c.439-.443.642-.954.642-1.55z"/></symbol><symbol id="done" viewBox="0 0 33 32"><path d="M26.697 5.001a.831.831 0 0 0-.574.253L13.357 18.02l-5.253-5.253a.836.836 0 1 0-1.182 1.182l5.843 5.843a.833.833 0 0 0 1.18 0L27.302 6.435a.827.827 0 0 0 .186-.924.835.835 0 0 0-.794-.509z"/></symbol></defs></svg>