<svg width="9" height="18" viewBox="0 0 9 18" fill="none" xmlns="http://www.w3.org/2000/svg">
<path d="M0.725874 9.52975L0.726004 9.52962L0.716626 9.52016C0.562967 9.36504 0.5 9.20419 0.5 9C0.5 8.79722 0.562231 8.63224 0.7232 8.4635L0.723209 8.46351L0.72565 8.46091L7.58363 1.16835L7.58365 1.16837L7.58738 1.16432C7.69148 1.05115 7.80699 1 7.95103 1C8.22079 1 8.5 1.23716 8.5 1.64036C8.5 1.8094 8.43231 1.97991 8.31237 2.11878L2.13986 8.65675L1.8158 9L2.13986 9.34325L8.31243 15.8813C8.43377 16.0215 8.5 16.1831 8.5 16.3596C8.5 16.7628 8.22079 17 7.95103 17C7.80699 17 7.69148 16.9488 7.58738 16.8357L7.5874 16.8357L7.58386 16.8319L0.725874 9.52975Z" fill="#4440F6" stroke="black"/>
</svg>
