<svg width="9" height="18" viewBox="0 0 9 18" fill="none" xmlns="http://www.w3.org/2000/svg">
<path d="M9 9C8.99119 8.6646 8.87659 8.37711 8.63859 8.11838L1.78061 0.825817C1.57786 0.614994 1.33986 0.5 1.04897 0.5C0.458374 0.5 0 0.998309 0 1.64036C0 1.94701 0.114594 2.2345 0.317336 2.4549L6.48776 9L0.317336 15.5451C0.114594 15.7655 0 16.0434 0 16.3596C0 17.0017 0.458374 17.5 1.04897 17.5C1.33105 17.5 1.57786 17.385 1.78061 17.1742L8.63859 9.87204C8.88541 9.62289 9 9.3354 9 9Z" fill="#4440F6"/>
</svg>
